<?xml version="1.0" encoding="iso-8859-1"?>
<!-- Uploaded to: SVG Repo, www.svgrepo.com, Generator: SVG Repo Mixer Tools -->
<svg fill="#000000" height="800px" width="800px" version="1.1" id="Layer_1" xmlns="http://www.w3.org/2000/svg" xmlns:xlink="http://www.w3.org/1999/xlink" 
	 viewBox="0 0 459.033 459.033" xml:space="preserve">
<g>
	<g>
		<g>
			<path d="M186.115,133.799c0.174-1.933,0.51-3.877,1.038-5.815c4.475-16.416,21.321-28.785,42.42-23.033
				c2.735-18.852-10.132-36.489-29.009-39.559c-19.079-3.103-37.061,9.847-40.164,28.926
				C157.475,112.304,168.821,129.31,186.115,133.799z"/>
			<path d="M239.981,250.873c1.589-1.374,2.879-3.138,3.692-5.232c2.657-6.843-0.737-14.543-7.579-17.2l-42.856-16.64l-9.243-42.092
				l15.574,30.292l13.43,5.215c5.667-34.841,5.337-32.495,5.422-34.114l-7.842-2.137c-10.82-2.95-18.931-10.899-22.539-20.676
				c-0.8-0.13-19.617-3.191-21.104-3.433c-10.802-1.757-20.984,5.576-22.741,16.378c-11.315,69.095-14.272,93.199-14.413,96.665
				c-0.255,6.301,1.037,8.936,3.821,12.134H85.278c-11.322,0-20.5,9.178-20.5,20.5c0,11.322,9.178,20.5,20.5,20.5h62.164v135.5
				c0,6.903,5.597,12.5,12.5,12.5c6.903,0,12.5-5.597,12.5-12.5v-135.5h13.95c11.322,0,20.5-9.178,20.5-20.5
				c0-3.847-1.079-7.434-2.923-10.51l14.695,1.125l-11.346,70.747c-1.395,8.697,4.525,16.878,13.222,18.273
				c8.666,1.395,16.874-4.5,18.273-13.222l14.09-87.854C254.236,260.776,248.741,252.45,239.981,250.873z M169.624,245.405
				c-0.693-0.157-2.648-1.028-2.648-1.028c-7.164-2.782-11.452-9.79-11.154-17.063l2.209-51.903l10.772,49.053
				c0.955,4.348,4.022,7.928,8.171,9.539l38.381,14.902C215.356,248.904,180.806,247.945,169.624,245.405z"/>
			<circle cx="332.481" cy="36.983" r="36.983"/>
			<path d="M393.829,433.216l-20.585-102.479l16.521-73.345l0.993-138.889c-0.189-14.947-12.459-26.91-27.406-26.721l-48.262,0.61
				c-13.753,0.174-26.931,10.854-26.706,28.588l11.949,3.257l36.564-7.356l-42.416,21.728l-70.397-19.189
				c-9.571-2.604-19.456,3.037-22.067,12.614c-2.61,9.576,3.037,19.456,12.614,22.067l77.119,21.021
				c4.311,1.176,8.924,0.704,12.921-1.344l48.616-24.905l-41.591,38.616c-4.844,4.497-11.455,5.9-17.398,4.298l-5.034-1.374
				l0.863,68.239l0.218-0.003l-15.266,60.42c-0.408,1.616-0.628,3.273-0.654,4.94l-1.798,113.113
				c-0.189,11.91,9.312,21.719,21.222,21.907c0.117,0.002,0.233,0.003,0.35,0.003c11.751,0,21.371-9.432,21.558-21.225
				l1.758-110.605l17.464-69.12l10.445-0.132l-15.269,67.788c-0.666,2.955-0.701,6.017-0.105,8.986l21.49,106.982
				c2.349,11.694,13.731,19.242,25.393,16.898C388.609,456.263,396.175,444.894,393.829,433.216z"/>
		</g>
	</g>
</g>
</svg>